<svg xmlns="http://www.w3.org/2000/svg" viewBox="0 0 511 511"><path d="M485.729 236.892a7.56 7.56 0 0 0-.699-.904l-.718-.783a112.445 112.445 0 0 0-5.3-5.786l-96.189-105.006a7.494 7.494 0 0 0-.659-.728c-9.578-9.302-21.964-14.748-35.186-15.565C341.479 98.306 331.017 92 319.5 92c-17.369 0-31.5 14.131-31.5 31.5V196h-65v-72.5c0-17.369-14.131-31.5-31.5-31.5-11.514 0-21.98 6.307-27.481 16.12-13.221.817-25.607 6.263-35.185 15.565-.237.23-.456.472-.655.725L31.987 229.419a112.03 112.03 0 0 0-5.3 5.786l-.718.783a7.56 7.56 0 0 0-.699.904C9.487 256.133 0 280.729 0 307.5 0 368.981 50.019 419 111.5 419S223 368.981 223 307.5c0-2.859-.109-5.694-.322-8.5h65.643a112.291 112.291 0 0 0-.322 8.5c0 61.481 50.019 111.5 111.5 111.5S511 368.981 511 307.5c0-26.771-9.487-51.367-25.271-70.608zM303 123.5c0-9.098 7.402-16.5 16.5-16.5 3.445 0 6.709 1.079 9.415 2.958-10.059 2.743-18.985 8.249-25.915 15.651V123.5zm-95 0v2.11c-6.93-7.403-15.856-12.908-25.915-15.651a16.494 16.494 0 0 1 9.415-2.958c9.098-.001 16.5 7.401 16.5 16.499zM111.5 404C58.29 404 15 360.71 15 307.5c0-23.702 8.594-45.431 22.823-62.246l5.227-5.706C60.544 221.928 84.769 211 111.5 211c53.21 0 96.5 43.29 96.5 96.5S164.71 404 111.5 404zm0-208a111.106 111.106 0 0 0-33.174 5.039l61.278-66.894.036-.039C147.194 126.94 157.068 123 167.5 123c22.332 0 40.5 18.168 40.5 40.5V196h-16.5c-.172 0-.342.006-.511.017a7.478 7.478 0 0 0-6.077 2.218 7.5 7.5 0 0 0 .111 10.606c11.432 11.196 18.88 25.313 21.697 40.7C187.119 217.459 151.769 196 111.5 196zM288 284h-65v-20.5c0-19.088-5.781-37.238-16.524-52.5h98.048C293.781 226.262 288 244.411 288 263.5V284zm37.977-75.159a7.502 7.502 0 0 0 1.677-8.241c-1.178-2.831-3.958-4.642-7.028-4.617l-1.176.017H303v-32.5c0-22.332 18.168-40.5 40.5-40.5 10.432 0 20.306 3.94 27.86 11.105l.036.039 61.278 66.894A111.138 111.138 0 0 0 399.5 196c-40.269 0-75.619 21.459-95.219 53.542 2.816-15.387 10.265-29.505 21.696-40.701zM399.5 404c-53.21 0-96.5-43.29-96.5-96.5s43.29-96.5 96.5-96.5c26.731 0 50.956 10.928 68.449 28.547l5.227 5.706C487.406 262.069 496 283.798 496 307.5c0 53.21-43.29 96.5-96.5 96.5z"/><path d="M111.5 228C67.664 228 32 263.664 32 307.5S67.664 387 111.5 387s79.5-35.664 79.5-79.5-35.664-79.5-79.5-79.5zm0 144C75.935 372 47 343.065 47 307.5S75.935 243 111.5 243s64.5 28.935 64.5 64.5-28.935 64.5-64.5 64.5zm288-144c-43.836 0-79.5 35.664-79.5 79.5s35.664 79.5 79.5 79.5 79.5-35.664 79.5-79.5-35.664-79.5-79.5-79.5zm0 144c-35.565 0-64.5-28.935-64.5-64.5s28.935-64.5 64.5-64.5 64.5 28.935 64.5 64.5-28.935 64.5-64.5 64.5z"/><path d="M399.5 260a7.5 7.5 0 0 0 0 15c17.92 0 32.5 14.58 32.5 32.5a7.5 7.5 0 0 0 15 0c0-26.191-21.309-47.5-47.5-47.5zm-288 0a7.5 7.5 0 0 0 0 15c17.92 0 32.5 14.58 32.5 32.5a7.5 7.5 0 0 0 15 0c0-26.191-21.309-47.5-47.5-47.5z"/></svg>